<svg width="103" height="151" viewBox="0 0 103 151" fill="none" xmlns="http://www.w3.org/2000/svg">
<path fill-rule="evenodd" clip-rule="evenodd" d="M20.5964 74.8336H20.1757V74.4763C20.315 74.5964 20.4553 74.7155 20.5964 74.8336ZM52.8184 0.34127H20.1757H11.8057H0.0878296V151H11.8057H20.1757H59.5143C69.8372 151 78.1374 149.117 84.4149 145.35C90.6923 141.584 95.226 136.771 98.016 130.912C100.806 125.053 102.201 118.915 102.201 112.498C102.201 103.849 99.7597 96.6652 94.8773 90.9458C91.0813 86.499 86.0205 83.275 79.6948 81.2736C83.1036 78.9755 86.072 76.2709 88.5998 73.1597C92.3663 68.5562 95.1563 63.5342 96.9698 58.0938C98.7832 52.5138 99.69 46.9339 99.69 41.3539C99.69 27.5435 95.7143 17.2904 87.7628 10.5944C79.9509 3.759 68.3028 0.34127 52.8184 0.34127Z" fill="#751FFF"/>
<path d="M0.987178 142.318L12.6074 130.447C22.8622 138.752 33.4793 142.904 44.4586 142.904C52.094 142.904 58.336 140.758 63.1848 136.467C68.0335 132.119 70.4579 126.546 70.4579 119.747C70.4579 113.059 65.8878 105.674 56.7477 97.593L44.9602 87.1432C36.2102 79.4521 30.7763 74.046 28.6584 70.925C26.5963 67.804 25.5653 63.624 25.5653 58.3851C25.5653 47.9631 29.9681 38.9902 38.7739 31.4663C47.5796 23.8867 58.0852 20.0968 70.2907 20.0968C78.0375 20.0968 87.1219 22.4097 97.5439 27.0356L93.364 48.0189H88.0973C88.2087 46.2912 88.2644 45.0929 88.2644 44.4241C88.2644 39.1295 86.1466 34.866 81.9109 31.6335C77.6753 28.401 72.0741 26.7848 65.1075 26.7848C57.918 26.7848 51.8711 28.9305 46.9666 33.2219C42.0621 37.4575 39.6099 42.7243 39.6099 49.0221C39.6099 53.2577 40.836 57.1312 43.2882 60.6423C45.7962 64.1535 50.9793 69.253 58.8376 75.9409L68.7023 84.468C79.6816 93.8868 85.1713 102.693 85.1713 110.885C85.1713 121.642 80.016 130.865 69.7055 138.557C59.395 146.248 47.1059 150.093 32.8384 150.093C21.9148 150.093 11.2977 147.502 0.987178 142.318Z" fill="white"/>
</svg>
